<?xml version="1.0" encoding="UTF-8" standalone="no"?>
<!DOCTYPE svg PUBLIC "-//W3C//DTD SVG 1.1//EN"
 "http://www.w3.org/Graphics/SVG/1.1/DTD/svg11.dtd">
<!-- Generated by graphviz version 12.2.1 (20241206.2353)
 -->
<!-- Title: itambox_data_model Pages: 1 -->
<svg width="1475pt" height="1129pt"
 viewBox="0.00 0.00 1475.23 1129.00" xmlns="http://www.w3.org/2000/svg" xmlns:xlink="http://www.w3.org/1999/xlink">
<g id="graph0" class="graph" transform="scale(1 1) rotate(0) translate(18 1111)">
<title>itambox_data_model</title>
<polygon fill="#ffffff" stroke="none" points="-18,18 -18,-1111 1457.23,-1111 1457.23,18 -18,18"/>
<g id="clust1" class="cluster">
<title>cluster_organization</title>
<path fill="#ffffff" stroke="#98a2b3" stroke-width="1.2" d="M20,-360C20,-360 1419.23,-360 1419.23,-360 1425.23,-360 1431.23,-366 1431.23,-372 1431.23,-372 1431.23,-1073 1431.23,-1073 1431.23,-1079 1425.23,-1085 1419.23,-1085 1419.23,-1085 20,-1085 20,-1085 14,-1085 8,-1079 8,-1073 8,-1073 8,-372 8,-372 8,-366 14,-360 20,-360"/>
<text text-anchor="middle" x="719.61" y="-1068.65" font-family="Arial Bold" font-size="13.00" fill="#344054">organization</text>
</g>
<g id="clust2" class="cluster">
<title>cluster_users</title>
<path fill="#ffffff" stroke="#98a2b3" stroke-width="1.2" d="M327.16,-8C327.16,-8 1097.44,-8 1097.44,-8 1103.44,-8 1109.44,-14 1109.44,-20 1109.44,-20 1109.44,-269 1109.44,-269 1109.44,-275 1103.44,-281 1097.44,-281 1097.44,-281 327.16,-281 327.16,-281 321.16,-281 315.16,-275 315.16,-269 315.16,-269 315.16,-20 315.16,-20 315.16,-14 321.16,-8 327.16,-8"/>
<text text-anchor="middle" x="712.3" y="-264.65" font-family="Arial Bold" font-size="13.00" fill="#344054">users</text>
</g>
<!-- organization.AssetHolder -->
<g id="node1" class="node">
<title>organization.AssetHolder</title>
<path fill="#e2f4f3" stroke="#52606d" d="M738.27,-404C738.27,-404 682.86,-404 682.86,-404 676.86,-404 670.86,-398 670.86,-392 670.86,-392 670.86,-380 670.86,-380 670.86,-374 676.86,-368 682.86,-368 682.86,-368 738.27,-368 738.27,-368 744.27,-368 750.27,-374 750.27,-380 750.27,-380 750.27,-392 750.27,-392 750.27,-398 744.27,-404 738.27,-404"/>
<text text-anchor="middle" x="710.57" y="-382.3" font-family="Arial" font-size="11.00">AssetHolder</text>
</g>
<!-- organization.Tenant -->
<g id="node14" class="node">
<title>organization.Tenant</title>
<path fill="#e2f4f3" stroke="#52606d" d="M1089.44,-622C1089.44,-622 1059.44,-622 1059.44,-622 1053.44,-622 1047.44,-616 1047.44,-610 1047.44,-610 1047.44,-598 1047.44,-598 1047.44,-592 1053.44,-586 1059.44,-586 1059.44,-586 1089.44,-586 1089.44,-586 1095.44,-586 1101.44,-592 1101.44,-598 1101.44,-598 1101.44,-610 1101.44,-610 1101.44,-616 1095.44,-622 1089.44,-622"/>
<text text-anchor="middle" x="1074.44" y="-600.3" font-family="Arial" font-size="11.00">Tenant</text>
</g>
<!-- organization.AssetHolder&#45;&gt;organization.Tenant -->
<g id="edge2" class="edge">
<title>organization.AssetHolder&#45;&gt;organization.Tenant</title>
<g id="a_edge2"><a xlink:title="tenant (optional, foreign key)">
<path fill="none" stroke="#667085" d="M750.66,-397.12C818.67,-416.46 951.57,-454.25 951.57,-454.25 951.57,-454.25 1016.13,-533.58 1051.28,-576.76"/>
<polygon fill="#667085" stroke="#667085" points="1048.52,-578.92 1057.55,-584.46 1053.95,-574.5 1048.52,-578.92"/>
</a>
</g>
<text text-anchor="middle" x="884.44" y="-456.4" font-family="Arial" font-size="8.00" fill="#475467">tenant (optional, foreign key)</text>
</g>
<!-- users.User -->
<g id="node19" class="node">
<title>users.User</title>
<path fill="#ededed" stroke="#52606d" d="M1089.44,-250C1089.44,-250 1059.44,-250 1059.44,-250 1053.44,-250 1047.44,-244 1047.44,-238 1047.44,-238 1047.44,-226 1047.44,-226 1047.44,-220 1053.44,-214 1059.44,-214 1059.44,-214 1089.44,-214 1089.44,-214 1095.44,-214 1101.44,-220 1101.44,-226 1101.44,-226 1101.44,-238 1101.44,-238 1101.44,-244 1095.44,-250 1089.44,-250"/>
<text text-anchor="middle" x="1074.44" y="-228.3" font-family="Arial" font-size="11.00">User</text>
</g>
<!-- organization.AssetHolder&#45;&gt;users.User -->
<g id="edge1" class="edge">
<title>organization.AssetHolder&#45;&gt;users.User</title>
<g id="a_edge1"><a xlink:title="user (optional, foreign key)">
<path fill="none" stroke="#667085" d="M737.71,-367.52C769.03,-345.39 817.32,-311.25 817.32,-311.25 817.32,-311.25 951.57,-278 951.57,-278 951.57,-278 1000.51,-259.53 1036.36,-246"/>
<polygon fill="#667085" stroke="#667085" points="1037.46,-249.32 1045.58,-242.52 1034.99,-242.77 1037.46,-249.32"/>
</a>
</g>
<text text-anchor="middle" x="884.44" y="-313.4" font-family="Arial" font-size="8.00" fill="#475467">user (optional, foreign key)</text>
</g>
<!-- organization.Contact -->
<g id="node2" class="node">
<title>organization.Contact</title>
<path fill="#e2f4f3" stroke="#52606d" d="M727.4,-853C727.4,-853 693.74,-853 693.74,-853 687.74,-853 681.74,-847 681.74,-841 681.74,-841 681.74,-829 681.74,-829 681.74,-823 687.74,-817 693.74,-817 693.74,-817 727.4,-817 727.4,-817 733.4,-817 739.4,-823 739.4,-829 739.4,-829 739.4,-841 739.4,-841 739.4,-847 733.4,-853 727.4,-853"/>
<text text-anchor="middle" x="710.57" y="-831.3" font-family="Arial" font-size="11.00">Contact</text>
</g>
<!-- organization.Contact&#45;&gt;organization.Tenant -->
<g id="edge3" class="edge">
<title>organization.Contact&#45;&gt;organization.Tenant</title>
<g id="a_edge3"><a xlink:title="tenant (optional, foreign key)">
<path fill="none" stroke="#667085" d="M739.64,-820.68C756.35,-812.16 774.32,-803 774.32,-803 774.32,-803 958.86,-680.23 1038.05,-627.55"/>
<polygon fill="#667085" stroke="#667085" points="1039.51,-630.78 1045.9,-622.32 1035.64,-624.95 1039.51,-630.78"/>
</a>
</g>
<text text-anchor="middle" x="884.44" y="-776.26" font-family="Arial" font-size="8.00" fill="#475467">tenant (optional, foreign key)</text>
</g>
<!-- organization.ContactAssignment -->
<g id="node3" class="node">
<title>organization.ContactAssignment</title>
<path fill="#e2f4f3" stroke="#52606d" d="M422.82,-818C422.82,-818 332.91,-818 332.91,-818 326.91,-818 320.91,-812 320.91,-806 320.91,-806 320.91,-794 320.91,-794 320.91,-788 326.91,-782 332.91,-782 332.91,-782 422.82,-782 422.82,-782 428.82,-782 434.82,-788 434.82,-794 434.82,-794 434.82,-806 434.82,-806 434.82,-812 428.82,-818 422.82,-818"/>
<text text-anchor="middle" x="377.86" y="-796.3" font-family="Arial" font-size="11.00">ContactAssignment</text>
</g>
<!-- organization.ContactAssignment&#45;&gt;organization.Contact -->
<g id="edge4" class="edge">
<title>organization.ContactAssignment&#45;&gt;organization.Contact</title>
<g id="a_edge4"><a xlink:title="contact (required, foreign key)">
<path fill="none" stroke="#667085" d="M434.96,-805.94C501.86,-813.02 611.93,-824.67 670.33,-830.85"/>
<polygon fill="#667085" stroke="#667085" points="669.81,-834.31 680.13,-831.88 670.55,-827.35 669.81,-834.31"/>
</a>
</g>
<text text-anchor="middle" x="540.82" y="-825.83" font-family="Arial" font-size="8.00" fill="#475467">contact (required, foreign key)</text>
</g>
<!-- organization.ContactRole -->
<g id="node4" class="node">
<title>organization.ContactRole</title>
<path fill="#e2f4f3" stroke="#52606d" d="M738.65,-788C738.65,-788 682.49,-788 682.49,-788 676.49,-788 670.49,-782 670.49,-776 670.49,-776 670.49,-764 670.49,-764 670.49,-758 676.49,-752 682.49,-752 682.49,-752 738.65,-752 738.65,-752 744.65,-752 750.65,-758 750.65,-764 750.65,-764 750.65,-776 750.65,-776 750.65,-782 744.65,-788 738.65,-788"/>
<text text-anchor="middle" x="710.57" y="-766.3" font-family="Arial" font-size="11.00">ContactRole</text>
</g>
<!-- organization.ContactAssignment&#45;&gt;organization.ContactRole -->
<g id="edge5" class="edge">
<title>organization.ContactAssignment&#45;&gt;organization.ContactRole</title>
<g id="a_edge5"><a xlink:title="role (required, foreign key)">
<path fill="none" stroke="#667085" d="M435.28,-788.17C457.5,-783.51 477.82,-779.25 477.82,-779.25 477.82,-779.25 590.4,-774.76 658.63,-772.03"/>
<polygon fill="#667085" stroke="#667085" points="658.63,-775.54 668.48,-771.64 658.35,-768.54 658.63,-775.54"/>
</a>
</g>
<text text-anchor="middle" x="540.82" y="-781.4" font-family="Arial" font-size="8.00" fill="#475467">role (required, foreign key)</text>
</g>
<!-- organization.CostCenter -->
<g id="node5" class="node">
<title>organization.CostCenter</title>
<path fill="#e2f4f3" stroke="#52606d" d="M736.4,-695C736.4,-695 684.74,-695 684.74,-695 678.74,-695 672.74,-689 672.74,-683 672.74,-683 672.74,-671 672.74,-671 672.74,-665 678.74,-659 684.74,-659 684.74,-659 736.4,-659 736.4,-659 742.4,-659 748.4,-665 748.4,-671 748.4,-671 748.4,-683 748.4,-683 748.4,-689 742.4,-695 736.4,-695"/>
<text text-anchor="middle" x="710.57" y="-673.3" font-family="Arial" font-size="11.00">CostCenter</text>
</g>
<!-- organization.CostCenter&#45;&gt;organization.CostCenter -->
<g id="edge7" class="edge">
<title>organization.CostCenter&#45;&gt;organization.CostCenter</title>
<g id="a_edge7"><a xlink:title="parent (optional, foreign key)">
<path fill="none" stroke="#667085" d="M682.85,-695.33C672.49,-709.52 681.73,-724 710.57,-724 732.2,-724 742.81,-715.86 742.39,-705.8"/>
<polygon fill="#667085" stroke="#667085" points="745.74,-704.78 738.84,-696.74 739.23,-707.33 745.74,-704.78"/>
</a>
</g>
<text text-anchor="middle" x="710.57" y="-726.15" font-family="Arial" font-size="8.00" fill="#475467">parent (optional, foreign key)</text>
</g>
<!-- organization.CostCenter&#45;&gt;organization.Tenant -->
<g id="edge6" class="edge">
<title>organization.CostCenter&#45;&gt;organization.Tenant</title>
<g id="a_edge6"><a xlink:title="tenant (optional, foreign key)">
<path fill="none" stroke="#667085" d="M748.81,-671.88C816.22,-662.61 951.57,-644 951.57,-644 951.57,-644 1000.51,-627.94 1036.36,-616.17"/>
<polygon fill="#667085" stroke="#667085" points="1037.15,-619.6 1045.56,-613.15 1034.97,-612.94 1037.15,-619.6"/>
</a>
</g>
<text text-anchor="middle" x="884.44" y="-663.64" font-family="Arial" font-size="8.00" fill="#475467">tenant (optional, foreign key)</text>
</g>
<!-- organization.Location -->
<g id="node6" class="node">
<title>organization.Location</title>
<path fill="#e2f4f3" stroke="#52606d" d="M396.19,-952C396.19,-952 359.53,-952 359.53,-952 353.53,-952 347.53,-946 347.53,-940 347.53,-940 347.53,-928 347.53,-928 347.53,-922 353.53,-916 359.53,-916 359.53,-916 396.19,-916 396.19,-916 402.19,-916 408.19,-922 408.19,-928 408.19,-928 408.19,-940 408.19,-940 408.19,-946 402.19,-952 396.19,-952"/>
<text text-anchor="middle" x="377.86" y="-930.3" font-family="Arial" font-size="11.00">Location</text>
</g>
<!-- organization.Location&#45;&gt;organization.Location -->
<g id="edge9" class="edge">
<title>organization.Location&#45;&gt;organization.Location</title>
<g id="a_edge9"><a xlink:title="parent (optional, foreign key)">
<path fill="none" stroke="#667085" d="M351.87,-952.33C342.15,-966.52 350.81,-981 377.86,-981 397.94,-981 407.89,-973.03 407.71,-963.11"/>
<polygon fill="#667085" stroke="#667085" points="411.03,-962 404.37,-953.76 404.44,-964.35 411.03,-962"/>
</a>
</g>
<text text-anchor="middle" x="377.86" y="-983.15" font-family="Arial" font-size="8.00" fill="#475467">parent (optional, foreign key)</text>
</g>
<!-- organization.Site -->
<g id="node12" class="node">
<title>organization.Site</title>
<path fill="#e2f4f3" stroke="#52606d" d="M725.57,-986C725.57,-986 695.57,-986 695.57,-986 689.57,-986 683.57,-980 683.57,-974 683.57,-974 683.57,-962 683.57,-962 683.57,-956 689.57,-950 695.57,-950 695.57,-950 725.57,-950 725.57,-950 731.57,-950 737.57,-956 737.57,-962 737.57,-962 737.57,-974 737.57,-974 737.57,-980 731.57,-986 725.57,-986"/>
<text text-anchor="middle" x="710.57" y="-964.3" font-family="Arial" font-size="11.00">Site</text>
</g>
<!-- organization.Location&#45;&gt;organization.Site -->
<g id="edge8" class="edge">
<title>organization.Location&#45;&gt;organization.Site</title>
<g id="a_edge8"><a xlink:title="site (required, foreign key)">
<path fill="none" stroke="#667085" d="M408.5,-937.05C468.78,-943.24 605.53,-957.3 671.96,-964.13"/>
<polygon fill="#667085" stroke="#667085" points="671.32,-967.59 681.63,-965.13 672.04,-960.62 671.32,-967.59"/>
</a>
</g>
<text text-anchor="middle" x="540.82" y="-959.15" font-family="Arial" font-size="8.00" fill="#475467">site (required, foreign key)</text>
</g>
<!-- organization.Location&#45;&gt;organization.Tenant -->
<g id="edge10" class="edge">
<title>organization.Location&#45;&gt;organization.Tenant</title>
<g id="a_edge10"><a xlink:title="tenant (optional, foreign key)">
<path fill="none" stroke="#667085" d="M408.59,-929.04C500.56,-913.69 774.32,-868 774.32,-868 774.32,-868 951.57,-791 951.57,-791 951.57,-791 1021.56,-683.61 1055.46,-631.59"/>
<polygon fill="#667085" stroke="#667085" points="1058.18,-633.83 1060.71,-623.54 1052.32,-630.01 1058.18,-633.83"/>
</a>
</g>
<text text-anchor="middle" x="710.57" y="-891.29" font-family="Arial" font-size="8.00" fill="#475467">tenant (optional, foreign key)</text>
</g>
<!-- organization.Membership -->
<g id="node7" class="node">
<title>organization.Membership</title>
<path fill="#e2f4f3" stroke="#52606d" d="M738.27,-534C738.27,-534 682.86,-534 682.86,-534 676.86,-534 670.86,-528 670.86,-522 670.86,-522 670.86,-510 670.86,-510 670.86,-504 676.86,-498 682.86,-498 682.86,-498 738.27,-498 738.27,-498 744.27,-498 750.27,-504 750.27,-510 750.27,-510 750.27,-522 750.27,-522 750.27,-528 744.27,-534 738.27,-534"/>
<text text-anchor="middle" x="710.57" y="-512.3" font-family="Arial" font-size="11.00">Membership</text>
</g>
<!-- organization.Membership&#45;&gt;organization.Tenant -->
<g id="edge12" class="edge">
<title>organization.Membership&#45;&gt;organization.Tenant</title>
<g id="a_edge12"><a xlink:title="tenant (required, foreign key)">
<path fill="none" stroke="#667085" d="M750.65,-528.19C780.77,-537.59 817.32,-549 817.32,-549 817.32,-549 964.69,-580.65 1035.86,-595.93"/>
<polygon fill="#667085" stroke="#667085" points="1035.01,-599.33 1045.52,-598 1036.48,-592.48 1035.01,-599.33"/>
</a>
</g>
<text text-anchor="middle" x="884.44" y="-578.65" font-family="Arial" font-size="8.00" fill="#475467">tenant (required, foreign key)</text>
</g>
<!-- organization.Membership&#45;&gt;users.User -->
<g id="edge11" class="edge">
<title>organization.Membership&#45;&gt;users.User</title>
<g id="a_edge11"><a xlink:title="user (required, foreign key)">
<path fill="none" stroke="#667085" d="M747.71,-497.57C761.66,-490.46 774.32,-484 774.32,-484 774.32,-484 817.32,-401.25 817.32,-401.25 817.32,-401.25 951.57,-366 951.57,-366 951.57,-366 1013.63,-297.76 1049.18,-258.68"/>
<polygon fill="#667085" stroke="#667085" points="1051.6,-261.22 1055.74,-251.47 1046.42,-256.51 1051.6,-261.22"/>
</a>
</g>
<text text-anchor="middle" x="884.44" y="-403.4" font-family="Arial" font-size="8.00" fill="#475467">user (required, foreign key)</text>
</g>
<!-- organization.Region -->
<g id="node8" class="node">
<title>organization.Region</title>
<path fill="#e2f4f3" stroke="#52606d" d="M1089.77,-986C1089.77,-986 1059.11,-986 1059.11,-986 1053.11,-986 1047.11,-980 1047.11,-974 1047.11,-974 1047.11,-962 1047.11,-962 1047.11,-956 1053.11,-950 1059.11,-950 1059.11,-950 1089.77,-950 1089.77,-950 1095.77,-950 1101.77,-956 1101.77,-962 1101.77,-962 1101.77,-974 1101.77,-974 1101.77,-980 1095.77,-986 1089.77,-986"/>
<text text-anchor="middle" x="1074.44" y="-964.3" font-family="Arial" font-size="11.00">Region</text>
</g>
<!-- organization.Region&#45;&gt;organization.Region -->
<g id="edge13" class="edge">
<title>organization.Region&#45;&gt;organization.Region</title>
<g id="a_edge13"><a xlink:title="parent (optional, foreign key)">
<path fill="none" stroke="#667085" d="M1046.94,-985.35C1035.18,-999.85 1044.35,-1015 1074.44,-1015 1097.25,-1015 1108.04,-1006.3 1106.81,-995.78"/>
<polygon fill="#667085" stroke="#667085" points="1109.99,-994.31 1102.59,-986.73 1103.65,-997.27 1109.99,-994.31"/>
</a>
</g>
<text text-anchor="middle" x="1074.44" y="-1017.15" font-family="Arial" font-size="8.00" fill="#475467">parent (optional, foreign key)</text>
</g>
<!-- organization.Role -->
<g id="node9" class="node">
<title>organization.Role</title>
<path fill="#e2f4f3" stroke="#52606d" d="M725.57,-599C725.57,-599 695.57,-599 695.57,-599 689.57,-599 683.57,-593 683.57,-587 683.57,-587 683.57,-575 683.57,-575 683.57,-569 689.57,-563 695.57,-563 695.57,-563 725.57,-563 725.57,-563 731.57,-563 737.57,-569 737.57,-575 737.57,-575 737.57,-587 737.57,-587 737.57,-593 731.57,-599 725.57,-599"/>
<text text-anchor="middle" x="710.57" y="-577.3" font-family="Arial" font-size="11.00">Role</text>
</g>
<!-- organization.Role&#45;&gt;organization.Tenant -->
<g id="edge14" class="edge">
<title>organization.Role&#45;&gt;organization.Tenant</title>
<g id="a_edge14"><a xlink:title="tenant (required, foreign key)">
<path fill="none" stroke="#667085" d="M737.98,-584C769.3,-587.55 817.32,-593 817.32,-593 817.32,-593 964.69,-599.33 1035.86,-602.39"/>
<polygon fill="#667085" stroke="#667085" points="1035.35,-605.87 1045.49,-602.8 1035.65,-598.87 1035.35,-605.87"/>
</a>
</g>
<text text-anchor="middle" x="884.44" y="-600.65" font-family="Arial" font-size="8.00" fill="#475467">tenant (required, foreign key)</text>
</g>
<!-- organization.RoleGrant -->
<g id="node10" class="node">
<title>organization.RoleGrant</title>
<path fill="#e2f4f3" stroke="#52606d" d="M400.69,-534C400.69,-534 355.03,-534 355.03,-534 349.03,-534 343.03,-528 343.03,-522 343.03,-522 343.03,-510 343.03,-510 343.03,-504 349.03,-498 355.03,-498 355.03,-498 400.69,-498 400.69,-498 406.69,-498 412.69,-504 412.69,-510 412.69,-510 412.69,-522 412.69,-522 412.69,-528 406.69,-534 400.69,-534"/>
<text text-anchor="middle" x="377.86" y="-512.3" font-family="Arial" font-size="11.00">RoleGrant</text>
</g>
<!-- organization.RoleGrant&#45;&gt;organization.Membership -->
<g id="edge15" class="edge">
<title>organization.RoleGrant&#45;&gt;organization.Membership</title>
<g id="a_edge15"><a xlink:title="membership (optional, foreign key)">
<path fill="none" stroke="#667085" d="M413.01,-516C471.51,-516 591.17,-516 659.25,-516"/>
<polygon fill="#667085" stroke="#667085" points="659.01,-519.5 669.01,-516 659.01,-512.5 659.01,-519.5"/>
</a>
</g>
<text text-anchor="middle" x="540.82" y="-518.15" font-family="Arial" font-size="8.00" fill="#475467">membership (optional, foreign key)</text>
</g>
<!-- organization.RoleGrant&#45;&gt;organization.Role -->
<g id="edge17" class="edge">
<title>organization.RoleGrant&#45;&gt;organization.Role</title>
<g id="a_edge17"><a xlink:title="role (required, foreign key)">
<path fill="none" stroke="#667085" d="M413.01,-522.71C475.44,-534.98 607.51,-560.94 672.23,-573.66"/>
<polygon fill="#667085" stroke="#667085" points="671.16,-577.02 681.64,-575.51 672.51,-570.15 671.16,-577.02"/>
</a>
</g>
<text text-anchor="middle" x="540.82" y="-562.13" font-family="Arial" font-size="8.00" fill="#475467">role (required, foreign key)</text>
</g>
<!-- organization.RoleGrant&#45;&gt;users.User -->
<g id="edge18" class="edge">
<title>organization.RoleGrant&#45;&gt;users.User</title>
<g id="a_edge18"><a xlink:title="granted_by (optional, foreign key)">
<path fill="none" stroke="#667085" d="M407.54,-497.62C476.67,-453.31 646.82,-344.25 646.82,-344.25 646.82,-344.25 817.32,-281 817.32,-281 817.32,-281 964.69,-252.81 1035.86,-239.19"/>
<polygon fill="#667085" stroke="#667085" points="1036.35,-242.66 1045.51,-237.34 1035.03,-235.79 1036.35,-242.66"/>
</a>
</g>
<text text-anchor="middle" x="710.57" y="-346.4" font-family="Arial" font-size="8.00" fill="#475467">granted_by (optional, foreign key)</text>
</g>
<!-- users.UserGroup -->
<g id="node20" class="node">
<title>users.UserGroup</title>
<path fill="#ededed" stroke="#52606d" d="M735.27,-250C735.27,-250 685.86,-250 685.86,-250 679.86,-250 673.86,-244 673.86,-238 673.86,-238 673.86,-226 673.86,-226 673.86,-220 679.86,-214 685.86,-214 685.86,-214 735.27,-214 735.27,-214 741.27,-214 747.27,-220 747.27,-226 747.27,-226 747.27,-238 747.27,-238 747.27,-244 741.27,-250 735.27,-250"/>
<text text-anchor="middle" x="710.57" y="-228.3" font-family="Arial" font-size="11.00">UserGroup</text>
</g>
<!-- organization.RoleGrant&#45;&gt;users.UserGroup -->
<g id="edge16" class="edge">
<title>organization.RoleGrant&#45;&gt;users.UserGroup</title>
<g id="a_edge16"><a xlink:title="user_group (optional, foreign key)">
<path fill="none" stroke="#667085" d="M386.47,-497.74C409.64,-442.07 477.82,-278.25 477.82,-278.25 477.82,-278.25 594.61,-254.94 662.38,-241.42"/>
<polygon fill="#667085" stroke="#667085" points="663.01,-244.86 672.13,-239.47 661.64,-238 663.01,-244.86"/>
</a>
</g>
<text text-anchor="middle" x="540.82" y="-280.4" font-family="Arial" font-size="8.00" fill="#475467">user_group (optional, foreign key)</text>
</g>
<!-- organization.RoleGrantScope -->
<g id="node11" class="node">
<title>organization.RoleGrantScope</title>
<path fill="#e2f4f3" stroke="#52606d" d="M104.41,-647C104.41,-647 28,-647 28,-647 22,-647 16,-641 16,-635 16,-635 16,-623 16,-623 16,-617 22,-611 28,-611 28,-611 104.41,-611 104.41,-611 110.41,-611 116.41,-617 116.41,-623 116.41,-623 116.41,-635 116.41,-635 116.41,-641 110.41,-647 104.41,-647"/>
<text text-anchor="middle" x="66.2" y="-625.3" font-family="Arial" font-size="11.00">RoleGrantScope</text>
</g>
<!-- organization.RoleGrantScope&#45;&gt;organization.RoleGrant -->
<g id="edge19" class="edge">
<title>organization.RoleGrantScope&#45;&gt;organization.RoleGrant</title>
<g id="a_edge19"><a xlink:title="role_grant (required, foreign key)">
<path fill="none" stroke="#667085" d="M116.61,-610.97C176.13,-589.25 275.22,-553.09 332.42,-532.22"/>
<polygon fill="#667085" stroke="#667085" points="333.32,-535.62 341.52,-528.9 330.92,-529.04 333.32,-535.62"/>
</a>
</g>
<text text-anchor="middle" x="218.66" y="-594.6" font-family="Arial" font-size="8.00" fill="#475467">role_grant (required, foreign key)</text>
</g>
<!-- organization.RoleGrantScope&#45;&gt;organization.Tenant -->
<g id="edge20" class="edge">
<title>organization.RoleGrantScope&#45;&gt;organization.Tenant</title>
<g id="a_edge20"><a xlink:title="tenant (optional, foreign key)">
<path fill="none" stroke="#667085" d="M116.65,-628.22C302.89,-625.27 951.57,-615 951.57,-615 951.57,-615 1000.09,-610.62 1035.9,-607.39"/>
<polygon fill="#667085" stroke="#667085" points="1035.85,-610.91 1045.49,-606.52 1035.22,-603.94 1035.85,-610.91"/>
</a>
</g>
<text text-anchor="middle" x="540.82" y="-624.63" font-family="Arial" font-size="8.00" fill="#475467">tenant (optional, foreign key)</text>
</g>
<!-- organization.TenantGroup -->
<g id="node15" class="node">
<title>organization.TenantGroup</title>
<path fill="#e2f4f3" stroke="#52606d" d="M1411.23,-622C1411.23,-622 1352.82,-622 1352.82,-622 1346.82,-622 1340.82,-616 1340.82,-610 1340.82,-610 1340.82,-598 1340.82,-598 1340.82,-592 1346.82,-586 1352.82,-586 1352.82,-586 1411.23,-586 1411.23,-586 1417.23,-586 1423.23,-592 1423.23,-598 1423.23,-598 1423.23,-610 1423.23,-610 1423.23,-616 1417.23,-622 1411.23,-622"/>
<text text-anchor="middle" x="1382.02" y="-600.3" font-family="Arial" font-size="11.00">TenantGroup</text>
</g>
<!-- organization.RoleGrantScope&#45;&gt;organization.TenantGroup -->
<g id="edge21" class="edge">
<title>organization.RoleGrantScope&#45;&gt;organization.TenantGroup</title>
<g id="a_edge21"><a xlink:title="tenant_group (optional, foreign key)">
<path fill="none" stroke="#667085" d="M79.67,-647.35C129.95,-721.37 315.16,-994 315.16,-994 315.16,-994 376.86,-1044 376.86,-1044 376.86,-1044 376.86,-1044 1075.44,-1044 1075.44,-1044 1154.32,-1028 1154.32,-1028 1154.32,-1028 1314.89,-727.69 1365.76,-632.55"/>
<polygon fill="#667085" stroke="#667085" points="1368.8,-634.3 1370.42,-623.83 1362.62,-630.99 1368.8,-634.3"/>
</a>
</g>
<text text-anchor="middle" x="710.57" y="-1046.15" font-family="Arial" font-size="8.00" fill="#475467">tenant_group (optional, foreign key)</text>
</g>
<!-- organization.Site&#45;&gt;organization.Region -->
<g id="edge22" class="edge">
<title>organization.Site&#45;&gt;organization.Region</title>
<g id="a_edge22"><a xlink:title="region (optional, foreign key)">
<path fill="none" stroke="#667085" d="M737.98,-970.75C769.3,-974.01 817.32,-979 817.32,-979 817.32,-979 951.57,-979 951.57,-979 951.57,-979 999.82,-974.65 1035.6,-971.42"/>
<polygon fill="#667085" stroke="#667085" points="1035.55,-974.93 1045.19,-970.55 1034.92,-967.96 1035.55,-974.93"/>
</a>
</g>
<text text-anchor="middle" x="884.44" y="-981.15" font-family="Arial" font-size="8.00" fill="#475467">region (optional, foreign key)</text>
</g>
<!-- organization.SiteGroup -->
<g id="node13" class="node">
<title>organization.SiteGroup</title>
<path fill="#e2f4f3" stroke="#52606d" d="M1096.9,-893C1096.9,-893 1051.99,-893 1051.99,-893 1045.99,-893 1039.99,-887 1039.99,-881 1039.99,-881 1039.99,-869 1039.99,-869 1039.99,-863 1045.99,-857 1051.99,-857 1051.99,-857 1096.9,-857 1096.9,-857 1102.9,-857 1108.9,-863 1108.9,-869 1108.9,-869 1108.9,-881 1108.9,-881 1108.9,-887 1102.9,-893 1096.9,-893"/>
<text text-anchor="middle" x="1074.44" y="-871.3" font-family="Arial" font-size="11.00">SiteGroup</text>
</g>
<!-- organization.Site&#45;&gt;organization.SiteGroup -->
<g id="edge23" class="edge">
<title>organization.Site&#45;&gt;organization.SiteGroup</title>
<g id="a_edge23"><a xlink:title="group (optional, foreign key)">
<path fill="none" stroke="#667085" d="M737.71,-964.41C799.91,-955.85 951.57,-935 951.57,-935 951.57,-935 994.53,-913.85 1029.44,-896.66"/>
<polygon fill="#667085" stroke="#667085" points="1030.71,-899.94 1038.14,-892.38 1027.62,-893.66 1030.71,-899.94"/>
</a>
</g>
<text text-anchor="middle" x="884.44" y="-954.64" font-family="Arial" font-size="8.00" fill="#475467">group (optional, foreign key)</text>
</g>
<!-- organization.Site&#45;&gt;organization.Tenant -->
<g id="edge24" class="edge">
<title>organization.Site&#45;&gt;organization.Tenant</title>
<g id="a_edge24"><a xlink:title="tenant (optional, foreign key)">
<path fill="none" stroke="#667085" d="M737.98,-957.07C769.3,-944.11 817.32,-924.25 817.32,-924.25 817.32,-924.25 951.57,-891 951.57,-891 951.57,-891 1030.43,-705.29 1061.28,-632.64"/>
<polygon fill="#667085" stroke="#667085" points="1064.36,-634.36 1065.04,-623.78 1057.91,-631.62 1064.36,-634.36"/>
</a>
</g>
<text text-anchor="middle" x="884.44" y="-926.4" font-family="Arial" font-size="8.00" fill="#475467">tenant (optional, foreign key)</text>
</g>
<!-- organization.SiteGroup&#45;&gt;organization.SiteGroup -->
<g id="edge25" class="edge">
<title>organization.SiteGroup&#45;&gt;organization.SiteGroup</title>
<g id="a_edge25"><a xlink:title="parent (optional, foreign key)">
<path fill="none" stroke="#667085" d="M1046.18,-893.33C1035.6,-907.52 1045.03,-922 1074.44,-922 1096.51,-922 1107.32,-913.86 1106.89,-903.8"/>
<polygon fill="#667085" stroke="#667085" points="1110.23,-902.73 1103.27,-894.74 1103.73,-905.32 1110.23,-902.73"/>
</a>
</g>
<text text-anchor="middle" x="1074.44" y="-924.15" font-family="Arial" font-size="8.00" fill="#475467">parent (optional, foreign key)</text>
</g>
<!-- organization.Tenant&#45;&gt;organization.Tenant -->
<g id="edge27" class="edge">
<title>organization.Tenant&#45;&gt;organization.Tenant</title>
<g id="a_edge27"><a xlink:title="managed_by (optional, foreign key)">
<path fill="none" stroke="#667085" d="M1047.34,-620.87C1034.98,-635.51 1044.01,-651 1074.44,-651 1097.74,-651 1108.5,-641.92 1106.72,-631.09"/>
<polygon fill="#667085" stroke="#667085" points="1109.86,-629.56 1102.23,-622.22 1103.62,-632.72 1109.86,-629.56"/>
</a>
</g>
<text text-anchor="middle" x="1074.44" y="-653.15" font-family="Arial" font-size="8.00" fill="#475467">managed_by (optional, foreign key)</text>
</g>
<!-- organization.Tenant&#45;&gt;organization.TenantGroup -->
<g id="edge26" class="edge">
<title>organization.Tenant&#45;&gt;organization.TenantGroup</title>
<g id="a_edge26"><a xlink:title="group (optional, foreign key)">
<path fill="none" stroke="#667085" d="M1101.76,-604C1152.16,-604 1263.11,-604 1328.99,-604"/>
<polygon fill="#667085" stroke="#667085" points="1328.83,-607.5 1338.83,-604 1328.83,-600.5 1328.83,-607.5"/>
</a>
</g>
<text text-anchor="middle" x="1247.57" y="-606.15" font-family="Arial" font-size="8.00" fill="#475467">group (optional, foreign key)</text>
</g>
<!-- organization.TenantGroup&#45;&gt;organization.TenantGroup -->
<g id="edge28" class="edge">
<title>organization.TenantGroup&#45;&gt;organization.TenantGroup</title>
<g id="a_edge28"><a xlink:title="parent (optional, foreign key)">
<path fill="none" stroke="#667085" d="M1360.07,-622.33C1351.86,-636.52 1359.18,-651 1382.02,-651 1398.98,-651 1407.38,-643.03 1407.23,-633.11"/>
<polygon fill="#667085" stroke="#667085" points="1410.66,-632.34 1404.42,-623.78 1403.96,-634.37 1410.66,-632.34"/>
</a>
</g>
<text text-anchor="middle" x="1382.02" y="-653.15" font-family="Arial" font-size="8.00" fill="#475467">parent (optional, foreign key)</text>
</g>
<!-- organization.TenantResourceGrant -->
<g id="node16" class="node">
<title>organization.TenantResourceGrant</title>
<path fill="#e2f4f3" stroke="#52606d" d="M761.52,-469C761.52,-469 659.61,-469 659.61,-469 653.61,-469 647.61,-463 647.61,-457 647.61,-457 647.61,-445 647.61,-445 647.61,-439 653.61,-433 659.61,-433 659.61,-433 761.52,-433 761.52,-433 767.52,-433 773.52,-439 773.52,-445 773.52,-445 773.52,-457 773.52,-457 773.52,-463 767.52,-469 761.52,-469"/>
<text text-anchor="middle" x="710.57" y="-447.3" font-family="Arial" font-size="11.00">TenantResourceGrant</text>
</g>
<!-- organization.TenantResourceGrant&#45;&gt;organization.Tenant -->
<g id="edge29" class="edge">
<title>organization.TenantResourceGrant&#45;&gt;organization.Tenant</title>
<g id="a_edge29"><a xlink:title="tenant (required, foreign key)">
<path fill="none" stroke="#667085" d="M747.67,-469.43C778.3,-485.08 817.32,-505 817.32,-505 817.32,-505 951.57,-538.25 951.57,-538.25 951.57,-538.25 1001.35,-565.11 1037.29,-584.49"/>
<polygon fill="#667085" stroke="#667085" points="1035.21,-587.35 1045.67,-589.01 1038.53,-581.19 1035.21,-587.35"/>
</a>
</g>
<text text-anchor="middle" x="884.44" y="-540.4" font-family="Arial" font-size="8.00" fill="#475467">tenant (required, foreign key)</text>
</g>
<!-- organization.TenantResourceGrant&#45;&gt;organization.Tenant -->
<g id="edge30" class="edge">
<title>organization.TenantResourceGrant&#45;&gt;organization.Tenant</title>
<g id="a_edge30"><a xlink:title="grantee_tenant (optional, foreign key)">
<path fill="none" stroke="#667085" d="M774,-462.25C845.11,-475.07 951.57,-494.25 951.57,-494.25 951.57,-494.25 1008.81,-545.79 1044.83,-578.23"/>
<polygon fill="#667085" stroke="#667085" points="1042.15,-580.53 1051.92,-584.62 1046.83,-575.32 1042.15,-580.53"/>
</a>
</g>
<text text-anchor="middle" x="884.44" y="-496.4" font-family="Arial" font-size="8.00" fill="#475467">grantee_tenant (optional, foreign key)</text>
</g>
<!-- organization.TenantResourceGrant&#45;&gt;organization.TenantGroup -->
<g id="edge31" class="edge">
<title>organization.TenantResourceGrant&#45;&gt;organization.TenantGroup</title>
<g id="a_edge31"><a xlink:title="grantee_tenant_group (optional, foreign key)">
<path fill="none" stroke="#667085" d="M774,-454.38C845.11,-458.23 951.57,-464 951.57,-464 951.57,-464 1215.82,-550.15 1329.76,-587.29"/>
<polygon fill="#667085" stroke="#667085" points="1328.59,-590.59 1339.18,-590.36 1330.76,-583.93 1328.59,-590.59"/>
</a>
</g>
<text text-anchor="middle" x="1074.44" y="-531.49" font-family="Arial" font-size="8.00" fill="#475467">grantee_tenant_group (optional, foreign key)</text>
</g>
<!-- organization.TenantResourceGrant&#45;&gt;users.User -->
<g id="edge32" class="edge">
<title>organization.TenantResourceGrant&#45;&gt;users.User</title>
<g id="a_edge32"><a xlink:title="granted_by (optional, foreign key)">
<path fill="none" stroke="#667085" d="M747.71,-432.57C761.66,-425.46 774.32,-419 774.32,-419 774.32,-419 817.32,-355.25 817.32,-355.25 817.32,-355.25 951.57,-322 951.57,-322 951.57,-322 1003.19,-283.88 1039.24,-257.26"/>
<polygon fill="#667085" stroke="#667085" points="1041.3,-260.09 1047.27,-251.33 1037.15,-254.45 1041.3,-260.09"/>
</a>
</g>
<text text-anchor="middle" x="884.44" y="-357.4" font-family="Arial" font-size="8.00" fill="#475467">granted_by (optional, foreign key)</text>
</g>
<!-- users.GroupMembership -->
<g id="node17" class="node">
<title>users.GroupMembership</title>
<path fill="#ededed" stroke="#52606d" d="M420.57,-208C420.57,-208 335.16,-208 335.16,-208 329.16,-208 323.16,-202 323.16,-196 323.16,-196 323.16,-184 323.16,-184 323.16,-178 329.16,-172 335.16,-172 335.16,-172 420.57,-172 420.57,-172 426.57,-172 432.57,-178 432.57,-184 432.57,-184 432.57,-196 432.57,-196 432.57,-202 426.57,-208 420.57,-208"/>
<text text-anchor="middle" x="377.86" y="-186.3" font-family="Arial" font-size="11.00">GroupMembership</text>
</g>
<!-- users.GroupMembership&#45;&gt;organization.Membership -->
<g id="edge34" class="edge">
<title>users.GroupMembership&#45;&gt;organization.Membership</title>
<g id="a_edge34"><a xlink:title="membership (required, foreign key)">
<path fill="none" stroke="#667085" d="M433.03,-201.38C499.6,-215.36 603.82,-237.25 603.82,-237.25 603.82,-237.25 646.82,-484 646.82,-484 646.82,-484 653.94,-487.63 663.39,-492.45"/>
<polygon fill="#667085" stroke="#667085" points="661.58,-495.46 672.08,-496.88 664.76,-489.22 661.58,-495.46"/>
</a>
</g>
<text text-anchor="middle" x="540.82" y="-239.4" font-family="Arial" font-size="8.00" fill="#475467">membership (required, foreign key)</text>
</g>
<!-- users.GroupMembership&#45;&gt;users.User -->
<g id="edge35" class="edge">
<title>users.GroupMembership&#45;&gt;users.User</title>
<g id="a_edge35"><a xlink:title="added_by (optional, foreign key)">
<path fill="none" stroke="#667085" d="M416.97,-171.55C490.95,-135.73 646.82,-60.25 646.82,-60.25 646.82,-60.25 774.32,-60.25 774.32,-60.25 774.32,-60.25 951.57,-107 951.57,-107 951.57,-107 1012.06,-169.05 1047.81,-205.71"/>
<polygon fill="#667085" stroke="#667085" points="1044.92,-207.76 1054.41,-212.47 1049.93,-202.87 1044.92,-207.76"/>
</a>
</g>
<text text-anchor="middle" x="710.57" y="-62.4" font-family="Arial" font-size="8.00" fill="#475467">added_by (optional, foreign key)</text>
</g>
<!-- users.GroupMembership&#45;&gt;users.UserGroup -->
<g id="edge33" class="edge">
<title>users.GroupMembership&#45;&gt;users.UserGroup</title>
<g id="a_edge33"><a xlink:title="user_group (required, foreign key)">
<path fill="none" stroke="#667085" d="M433.03,-190.06C499.6,-190.13 603.82,-190.25 603.82,-190.25 603.82,-190.25 634.5,-202.36 662.81,-213.54"/>
<polygon fill="#667085" stroke="#667085" points="661.48,-216.78 672.06,-217.19 664.05,-210.27 661.48,-216.78"/>
</a>
</g>
<text text-anchor="middle" x="540.82" y="-192.4" font-family="Arial" font-size="8.00" fill="#475467">user_group (required, foreign key)</text>
</g>
<!-- users.Token -->
<g id="node18" class="node">
<title>users.Token</title>
<path fill="#ededed" stroke="#52606d" d="M725.57,-185C725.57,-185 695.57,-185 695.57,-185 689.57,-185 683.57,-179 683.57,-173 683.57,-173 683.57,-161 683.57,-161 683.57,-155 689.57,-149 695.57,-149 695.57,-149 725.57,-149 725.57,-149 731.57,-149 737.57,-155 737.57,-161 737.57,-161 737.57,-173 737.57,-173 737.57,-179 731.57,-185 725.57,-185"/>
<text text-anchor="middle" x="710.57" y="-163.3" font-family="Arial" font-size="11.00">Token</text>
</g>
<!-- users.Token&#45;&gt;organization.Tenant -->
<g id="edge37" class="edge">
<title>users.Token&#45;&gt;organization.Tenant</title>
<g id="a_edge37"><a xlink:title="tenant (required, foreign key)">
<path fill="none" stroke="#667085" d="M737.71,-173.78C799.91,-189.91 951.57,-229.25 951.57,-229.25 951.57,-229.25 994.57,-476 994.57,-476 994.57,-476 1033.13,-538.58 1056.33,-576.23"/>
<polygon fill="#667085" stroke="#667085" points="1053.12,-577.69 1061.35,-584.37 1059.08,-574.02 1053.12,-577.69"/>
</a>
</g>
<text text-anchor="middle" x="884.44" y="-231.4" font-family="Arial" font-size="8.00" fill="#475467">tenant (required, foreign key)</text>
</g>
<!-- users.Token&#45;&gt;users.User -->
<g id="edge36" class="edge">
<title>users.Token&#45;&gt;users.User</title>
<g id="a_edge36"><a xlink:title="user (required, foreign key)">
<path fill="none" stroke="#667085" d="M737.98,-161.32C769.3,-154.58 817.32,-144.25 817.32,-144.25 817.32,-144.25 951.57,-144.25 951.57,-144.25 951.57,-144.25 1002.63,-181.01 1038.65,-206.95"/>
<polygon fill="#667085" stroke="#667085" points="1036.51,-209.72 1046.67,-212.72 1040.6,-204.04 1036.51,-209.72"/>
</a>
</g>
<text text-anchor="middle" x="884.44" y="-146.4" font-family="Arial" font-size="8.00" fill="#475467">user (required, foreign key)</text>
</g>
<!-- users.UserGroup&#45;&gt;organization.Tenant -->
<g id="edge38" class="edge">
<title>users.UserGroup&#45;&gt;organization.Tenant</title>
<g id="a_edge38"><a xlink:title="tenant (required, foreign key)">
<path fill="none" stroke="#667085" d="M747.76,-236.41C814.81,-244.58 951.57,-261.25 951.57,-261.25 951.57,-261.25 994.57,-476 994.57,-476 994.57,-476 1033.13,-538.58 1056.33,-576.23"/>
<polygon fill="#667085" stroke="#667085" points="1053.12,-577.69 1061.35,-584.37 1059.08,-574.02 1053.12,-577.69"/>
</a>
</g>
<text text-anchor="middle" x="884.44" y="-263.4" font-family="Arial" font-size="8.00" fill="#475467">tenant (required, foreign key)</text>
</g>
<!-- users.UserPreference -->
<g id="node21" class="node">
<title>users.UserPreference</title>
<path fill="#ededed" stroke="#52606d" d="M746.9,-120C746.9,-120 674.24,-120 674.24,-120 668.24,-120 662.24,-114 662.24,-108 662.24,-108 662.24,-96 662.24,-96 662.24,-90 668.24,-84 674.24,-84 674.24,-84 746.9,-84 746.9,-84 752.9,-84 758.9,-90 758.9,-96 758.9,-96 758.9,-108 758.9,-108 758.9,-114 752.9,-120 746.9,-120"/>
<text text-anchor="middle" x="710.57" y="-98.3" font-family="Arial" font-size="11.00">UserPreference</text>
</g>
<!-- users.UserPreference&#45;&gt;users.User -->
<g id="edge39" class="edge">
<title>users.UserPreference&#45;&gt;users.User</title>
<g id="a_edge39"><a xlink:title="user (required, one&#45;to&#45;one)">
<path fill="none" stroke="#667085" stroke-width="1.4" d="M771.2,-108.27C842.28,-115.75 951.57,-127.25 951.57,-127.25 951.57,-127.25 1006.66,-174.6 1042.77,-205.63"/>
<polygon fill="#667085" stroke="#667085" stroke-width="1.4" points="771.69,-104.81 761.38,-107.24 770.96,-111.77 771.69,-104.81"/>
<polygon fill="#667085" stroke="#667085" stroke-width="1.4" points="1040.46,-208.27 1050.33,-212.13 1045.03,-202.96 1040.46,-208.27"/>
</a>
</g>
<text text-anchor="middle" x="884.44" y="-129.4" font-family="Arial" font-size="8.00" fill="#475467">user (required, one&#45;to&#45;one)</text>
</g>
</g>
</svg>
