<?xml version="1.0" encoding="UTF-8" standalone="no"?>
<!DOCTYPE svg PUBLIC "-//W3C//DTD SVG 1.1//EN"
 "http://www.w3.org/Graphics/SVG/1.1/DTD/svg11.dtd">
<!-- Generated by graphviz version 12.2.1 (20241206.2353)
 -->
<!-- Title: itambox_data_model Pages: 1 -->
<svg width="1098pt" height="1046pt"
 viewBox="0.00 0.00 1098.23 1046.00" xmlns="http://www.w3.org/2000/svg" xmlns:xlink="http://www.w3.org/1999/xlink">
<g id="graph0" class="graph" transform="scale(1 1) rotate(0) translate(18 1028)">
<title>itambox_data_model</title>
<polygon fill="#ffffff" stroke="none" points="-18,18 -18,-1028 1080.23,-1028 1080.23,18 -18,18"/>
<g id="clust1" class="cluster">
<title>cluster_organization</title>
<path fill="#ffffff" stroke="#98a2b3" stroke-width="1.2" d="M20,-342C20,-342 1042.23,-342 1042.23,-342 1048.23,-342 1054.23,-348 1054.23,-354 1054.23,-354 1054.23,-990 1054.23,-990 1054.23,-996 1048.23,-1002 1042.23,-1002 1042.23,-1002 20,-1002 20,-1002 14,-1002 8,-996 8,-990 8,-990 8,-354 8,-354 8,-348 14,-342 20,-342"/>
<text text-anchor="middle" x="531.11" y="-985.65" font-family="Arial Bold" font-size="13.00" fill="#344054">organization</text>
</g>
<g id="clust2" class="cluster">
<title>cluster_users</title>
<path fill="#ffffff" stroke="#98a2b3" stroke-width="1.2" d="M40.25,-8C40.25,-8 765.86,-8 765.86,-8 771.86,-8 777.86,-14 777.86,-20 777.86,-20 777.86,-204 777.86,-204 777.86,-210 771.86,-216 765.86,-216 765.86,-216 40.25,-216 40.25,-216 34.25,-216 28.25,-210 28.25,-204 28.25,-204 28.25,-20 28.25,-20 28.25,-14 34.25,-8 40.25,-8"/>
<text text-anchor="middle" x="403.06" y="-199.65" font-family="Arial Bold" font-size="13.00" fill="#344054">users</text>
</g>
<!-- organization.AssetHolder -->
<g id="node1" class="node">
<title>organization.AssetHolder</title>
<path fill="#e2f4f3" stroke="#52606d" d="M446.86,-482C446.86,-482 391.45,-482 391.45,-482 385.45,-482 379.45,-476 379.45,-470 379.45,-470 379.45,-458 379.45,-458 379.45,-452 385.45,-446 391.45,-446 391.45,-446 446.86,-446 446.86,-446 452.86,-446 458.86,-452 458.86,-458 458.86,-458 458.86,-470 458.86,-470 458.86,-476 452.86,-482 446.86,-482"/>
<text text-anchor="middle" x="419.16" y="-460.3" font-family="Arial" font-size="11.00">AssetHolder</text>
</g>
<!-- organization.Tenant -->
<g id="node13" class="node">
<title>organization.Tenant</title>
<path fill="#e2f4f3" stroke="#52606d" d="M757.86,-598C757.86,-598 727.86,-598 727.86,-598 721.86,-598 715.86,-592 715.86,-586 715.86,-586 715.86,-574 715.86,-574 715.86,-568 721.86,-562 727.86,-562 727.86,-562 757.86,-562 757.86,-562 763.86,-562 769.86,-568 769.86,-574 769.86,-574 769.86,-586 769.86,-586 769.86,-592 763.86,-598 757.86,-598"/>
<text text-anchor="middle" x="742.86" y="-576.3" font-family="Arial" font-size="11.00">Tenant</text>
</g>
<!-- organization.AssetHolder&#45;&gt;organization.Tenant -->
<g id="edge2" class="edge">
<title>organization.AssetHolder&#45;&gt;organization.Tenant</title>
<g id="a_edge2"><a xlink:title="tenant (optional, foreign key)">
<path fill="none" stroke="#667085" d="M459.21,-476.77C493.99,-488.14 539.41,-503 539.41,-503 539.41,-503 665.41,-536.25 665.41,-536.25 665.41,-536.25 685.92,-547.99 705.7,-559.3"/>
<polygon fill="#667085" stroke="#667085" points="703.82,-562.26 714.24,-564.19 707.3,-556.19 703.82,-562.26"/>
</a>
</g>
<text text-anchor="middle" x="602.41" y="-538.4" font-family="Arial" font-size="8.00" fill="#475467">tenant (optional, foreign key)</text>
</g>
<!-- users.User -->
<g id="node16" class="node">
<title>users.User</title>
<path fill="#ededed" stroke="#52606d" d="M757.86,-185C757.86,-185 727.86,-185 727.86,-185 721.86,-185 715.86,-179 715.86,-173 715.86,-173 715.86,-161 715.86,-161 715.86,-155 721.86,-149 727.86,-149 727.86,-149 757.86,-149 757.86,-149 763.86,-149 769.86,-155 769.86,-161 769.86,-161 769.86,-173 769.86,-173 769.86,-179 763.86,-185 757.86,-185"/>
<text text-anchor="middle" x="742.86" y="-163.3" font-family="Arial" font-size="11.00">User</text>
</g>
<!-- organization.AssetHolder&#45;&gt;users.User -->
<g id="edge1" class="edge">
<title>organization.AssetHolder&#45;&gt;users.User</title>
<g id="a_edge1"><a xlink:title="user (optional, foreign key)">
<path fill="none" stroke="#667085" d="M456.91,-445.59C491.95,-428.03 539.41,-404.25 539.41,-404.25 539.41,-404.25 665.41,-350 665.41,-350 665.41,-350 708.38,-247.15 729.89,-195.66"/>
<polygon fill="#667085" stroke="#667085" points="733.05,-197.19 733.67,-186.61 726.59,-194.49 733.05,-197.19"/>
</a>
</g>
<text text-anchor="middle" x="602.41" y="-406.4" font-family="Arial" font-size="8.00" fill="#475467">user (optional, foreign key)</text>
</g>
<!-- organization.Contact -->
<g id="node2" class="node">
<title>organization.Contact</title>
<path fill="#e2f4f3" stroke="#52606d" d="M435.99,-680C435.99,-680 402.33,-680 402.33,-680 396.33,-680 390.33,-674 390.33,-668 390.33,-668 390.33,-656 390.33,-656 390.33,-650 396.33,-644 402.33,-644 402.33,-644 435.99,-644 435.99,-644 441.99,-644 447.99,-650 447.99,-656 447.99,-656 447.99,-668 447.99,-668 447.99,-674 441.99,-680 435.99,-680"/>
<text text-anchor="middle" x="419.16" y="-658.3" font-family="Arial" font-size="11.00">Contact</text>
</g>
<!-- organization.Contact&#45;&gt;organization.Tenant -->
<g id="edge3" class="edge">
<title>organization.Contact&#45;&gt;organization.Tenant</title>
<g id="a_edge3"><a xlink:title="tenant (optional, foreign key)">
<path fill="none" stroke="#667085" d="M448.29,-656.38C512.71,-643.51 665.41,-613 665.41,-613 665.41,-613 685.55,-604.31 705.15,-595.85"/>
<polygon fill="#667085" stroke="#667085" points="706.37,-599.13 714.16,-591.96 703.6,-592.71 706.37,-599.13"/>
</a>
</g>
<text text-anchor="middle" x="602.41" y="-639.65" font-family="Arial" font-size="8.00" fill="#475467">tenant (optional, foreign key)</text>
</g>
<!-- organization.ContactAssignment -->
<g id="node3" class="node">
<title>organization.ContactAssignment</title>
<path fill="#e2f4f3" stroke="#52606d" d="M117.91,-710C117.91,-710 28,-710 28,-710 22,-710 16,-704 16,-698 16,-698 16,-686 16,-686 16,-680 22,-674 28,-674 28,-674 117.91,-674 117.91,-674 123.91,-674 129.91,-680 129.91,-686 129.91,-686 129.91,-698 129.91,-698 129.91,-704 123.91,-710 117.91,-710"/>
<text text-anchor="middle" x="72.95" y="-688.3" font-family="Arial" font-size="11.00">ContactAssignment</text>
</g>
<!-- organization.ContactAssignment&#45;&gt;organization.Contact -->
<g id="edge4" class="edge">
<title>organization.ContactAssignment&#45;&gt;organization.Contact</title>
<g id="a_edge4"><a xlink:title="contact (required, foreign key)">
<path fill="none" stroke="#667085" d="M130.37,-680.17C152.59,-675.51 172.91,-671.25 172.91,-671.25 172.91,-671.25 309.36,-666.1 378.71,-663.49"/>
<polygon fill="#667085" stroke="#667085" points="378.65,-666.99 388.51,-663.12 378.39,-660 378.65,-666.99"/>
</a>
</g>
<text text-anchor="middle" x="235.91" y="-673.4" font-family="Arial" font-size="8.00" fill="#475467">contact (required, foreign key)</text>
</g>
<!-- organization.ContactRole -->
<g id="node4" class="node">
<title>organization.ContactRole</title>
<path fill="#e2f4f3" stroke="#52606d" d="M447.24,-745C447.24,-745 391.08,-745 391.08,-745 385.08,-745 379.08,-739 379.08,-733 379.08,-733 379.08,-721 379.08,-721 379.08,-715 385.08,-709 391.08,-709 391.08,-709 447.24,-709 447.24,-709 453.24,-709 459.24,-715 459.24,-721 459.24,-721 459.24,-733 459.24,-733 459.24,-739 453.24,-745 447.24,-745"/>
<text text-anchor="middle" x="419.16" y="-723.3" font-family="Arial" font-size="11.00">ContactRole</text>
</g>
<!-- organization.ContactAssignment&#45;&gt;organization.ContactRole -->
<g id="edge5" class="edge">
<title>organization.ContactAssignment&#45;&gt;organization.ContactRole</title>
<g id="a_edge5"><a xlink:title="role (required, foreign key)">
<path fill="none" stroke="#667085" d="M130.41,-697.74C196.3,-704.44 304.29,-715.42 367.56,-721.86"/>
<polygon fill="#667085" stroke="#667085" points="367.03,-725.32 377.33,-722.85 367.74,-718.35 367.03,-725.32"/>
</a>
</g>
<text text-anchor="middle" x="235.91" y="-716.83" font-family="Arial" font-size="8.00" fill="#475467">role (required, foreign key)</text>
</g>
<!-- organization.CostCenter -->
<g id="node5" class="node">
<title>organization.CostCenter</title>
<path fill="#e2f4f3" stroke="#52606d" d="M444.99,-878C444.99,-878 393.33,-878 393.33,-878 387.33,-878 381.33,-872 381.33,-866 381.33,-866 381.33,-854 381.33,-854 381.33,-848 387.33,-842 393.33,-842 393.33,-842 444.99,-842 444.99,-842 450.99,-842 456.99,-848 456.99,-854 456.99,-854 456.99,-866 456.99,-866 456.99,-872 450.99,-878 444.99,-878"/>
<text text-anchor="middle" x="419.16" y="-856.3" font-family="Arial" font-size="11.00">CostCenter</text>
</g>
<!-- organization.CostCenter&#45;&gt;organization.CostCenter -->
<g id="edge7" class="edge">
<title>organization.CostCenter&#45;&gt;organization.CostCenter</title>
<g id="a_edge7"><a xlink:title="parent (optional, foreign key)">
<path fill="none" stroke="#667085" d="M389.24,-878.33C378.05,-892.52 388.02,-907 419.16,-907 442.51,-907 453.96,-898.86 453.51,-888.8"/>
<polygon fill="#667085" stroke="#667085" points="456.79,-887.57 449.67,-879.73 450.34,-890.3 456.79,-887.57"/>
</a>
</g>
<text text-anchor="middle" x="419.16" y="-909.15" font-family="Arial" font-size="8.00" fill="#475467">parent (optional, foreign key)</text>
</g>
<!-- organization.CostCenter&#45;&gt;organization.Tenant -->
<g id="edge6" class="edge">
<title>organization.CostCenter&#45;&gt;organization.Tenant</title>
<g id="a_edge6"><a xlink:title="tenant (optional, foreign key)">
<path fill="none" stroke="#667085" d="M457.41,-850.28C526.02,-832.38 665.41,-796 665.41,-796 665.41,-796 710.63,-668.25 731.51,-609.24"/>
<polygon fill="#667085" stroke="#667085" points="734.8,-610.44 734.84,-599.84 728.21,-608.1 734.8,-610.44"/>
</a>
</g>
<text text-anchor="middle" x="602.41" y="-830.15" font-family="Arial" font-size="8.00" fill="#475467">tenant (optional, foreign key)</text>
</g>
<!-- organization.Location -->
<g id="node6" class="node">
<title>organization.Location</title>
<path fill="#e2f4f3" stroke="#52606d" d="M91.28,-867C91.28,-867 54.62,-867 54.62,-867 48.62,-867 42.62,-861 42.62,-855 42.62,-855 42.62,-843 42.62,-843 42.62,-837 48.62,-831 54.62,-831 54.62,-831 91.28,-831 91.28,-831 97.28,-831 103.28,-837 103.28,-843 103.28,-843 103.28,-855 103.28,-855 103.28,-861 97.28,-867 91.28,-867"/>
<text text-anchor="middle" x="72.95" y="-845.3" font-family="Arial" font-size="11.00">Location</text>
</g>
<!-- organization.Location&#45;&gt;organization.Location -->
<g id="edge9" class="edge">
<title>organization.Location&#45;&gt;organization.Location</title>
<g id="a_edge9"><a xlink:title="parent (optional, foreign key)">
<path fill="none" stroke="#667085" d="M46.35,-867.33C36.4,-881.52 45.27,-896 72.95,-896 93.51,-896 103.69,-888.03 103.51,-878.11"/>
<polygon fill="#667085" stroke="#667085" points="106.81,-876.94 100.08,-868.75 100.23,-879.35 106.81,-876.94"/>
</a>
</g>
<text text-anchor="middle" x="72.95" y="-898.15" font-family="Arial" font-size="8.00" fill="#475467">parent (optional, foreign key)</text>
</g>
<!-- organization.Site -->
<g id="node11" class="node">
<title>organization.Site</title>
<path fill="#e2f4f3" stroke="#52606d" d="M434.16,-971C434.16,-971 404.16,-971 404.16,-971 398.16,-971 392.16,-965 392.16,-959 392.16,-959 392.16,-947 392.16,-947 392.16,-941 398.16,-935 404.16,-935 404.16,-935 434.16,-935 434.16,-935 440.16,-935 446.16,-941 446.16,-947 446.16,-947 446.16,-959 446.16,-959 446.16,-965 440.16,-971 434.16,-971"/>
<text text-anchor="middle" x="419.16" y="-949.3" font-family="Arial" font-size="11.00">Site</text>
</g>
<!-- organization.Location&#45;&gt;organization.Site -->
<g id="edge8" class="edge">
<title>organization.Location&#45;&gt;organization.Site</title>
<g id="a_edge8"><a xlink:title="site (required, foreign key)">
<path fill="none" stroke="#667085" d="M103.6,-857.96C166.31,-876.91 312.3,-921.01 381.07,-941.79"/>
<polygon fill="#667085" stroke="#667085" points="379.77,-945.06 390.36,-944.6 381.8,-938.36 379.77,-945.06"/>
</a>
</g>
<text text-anchor="middle" x="235.91" y="-918.54" font-family="Arial" font-size="8.00" fill="#475467">site (required, foreign key)</text>
</g>
<!-- organization.Location&#45;&gt;organization.Tenant -->
<g id="edge10" class="edge">
<title>organization.Location&#45;&gt;organization.Tenant</title>
<g id="a_edge10"><a xlink:title="tenant (optional, foreign key)">
<path fill="none" stroke="#667085" d="M103.66,-842.74C199.82,-822.48 496.41,-760 496.41,-760 496.41,-760 665.41,-654 665.41,-654 665.41,-654 692.86,-627.43 714.87,-606.13"/>
<polygon fill="#667085" stroke="#667085" points="717.13,-608.81 721.88,-599.34 712.26,-603.78 717.13,-608.81"/>
</a>
</g>
<text text-anchor="middle" x="419.16" y="-793.48" font-family="Arial" font-size="8.00" fill="#475467">tenant (optional, foreign key)</text>
</g>
<!-- organization.Membership -->
<g id="node7" class="node">
<title>organization.Membership</title>
<path fill="#e2f4f3" stroke="#52606d" d="M446.86,-386C446.86,-386 391.45,-386 391.45,-386 385.45,-386 379.45,-380 379.45,-374 379.45,-374 379.45,-362 379.45,-362 379.45,-356 385.45,-350 391.45,-350 391.45,-350 446.86,-350 446.86,-350 452.86,-350 458.86,-356 458.86,-362 458.86,-362 458.86,-374 458.86,-374 458.86,-380 452.86,-386 446.86,-386"/>
<text text-anchor="middle" x="419.16" y="-364.3" font-family="Arial" font-size="11.00">Membership</text>
</g>
<!-- organization.Membership&#45;&gt;organization.Tenant -->
<g id="edge12" class="edge">
<title>organization.Membership&#45;&gt;organization.Tenant</title>
<g id="a_edge12"><a xlink:title="tenant (required, foreign key)">
<path fill="none" stroke="#667085" d="M459.21,-383.39C493.99,-397.1 539.41,-415 539.41,-415 539.41,-415 665.41,-448.25 665.41,-448.25 665.41,-448.25 703.18,-513.33 725.62,-552.01"/>
<polygon fill="#667085" stroke="#667085" points="722.43,-553.48 730.47,-560.37 728.48,-549.97 722.43,-553.48"/>
</a>
</g>
<text text-anchor="middle" x="602.41" y="-450.4" font-family="Arial" font-size="8.00" fill="#475467">tenant (required, foreign key)</text>
</g>
<!-- organization.Membership&#45;&gt;users.User -->
<g id="edge11" class="edge">
<title>organization.Membership&#45;&gt;users.User</title>
<g id="a_edge11"><a xlink:title="user (required, foreign key)">
<path fill="none" stroke="#667085" d="M459.29,-356.83C528.53,-337.07 665.41,-298 665.41,-298 665.41,-298 702.98,-233.62 725.45,-195.13"/>
<polygon fill="#667085" stroke="#667085" points="728.29,-197.2 730.31,-186.8 722.25,-193.67 728.29,-197.2"/>
</a>
</g>
<text text-anchor="middle" x="602.41" y="-335.15" font-family="Arial" font-size="8.00" fill="#475467">user (required, foreign key)</text>
</g>
<!-- organization.Region -->
<g id="node8" class="node">
<title>organization.Region</title>
<path fill="#e2f4f3" stroke="#52606d" d="M758.19,-943C758.19,-943 727.53,-943 727.53,-943 721.53,-943 715.53,-937 715.53,-931 715.53,-931 715.53,-919 715.53,-919 715.53,-913 721.53,-907 727.53,-907 727.53,-907 758.19,-907 758.19,-907 764.19,-907 770.19,-913 770.19,-919 770.19,-919 770.19,-931 770.19,-931 770.19,-937 764.19,-943 758.19,-943"/>
<text text-anchor="middle" x="742.86" y="-921.3" font-family="Arial" font-size="11.00">Region</text>
</g>
<!-- organization.Region&#45;&gt;organization.Region -->
<g id="edge13" class="edge">
<title>organization.Region&#45;&gt;organization.Region</title>
<g id="a_edge13"><a xlink:title="parent (optional, foreign key)">
<path fill="none" stroke="#667085" d="M722.01,-943.33C714.21,-957.52 721.17,-972 742.86,-972 758.97,-972 766.95,-964.03 766.81,-954.11"/>
<polygon fill="#667085" stroke="#667085" points="770.25,-953.44 764.13,-944.79 763.53,-955.36 770.25,-953.44"/>
</a>
</g>
<text text-anchor="middle" x="742.86" y="-974.15" font-family="Arial" font-size="8.00" fill="#475467">parent (optional, foreign key)</text>
</g>
<!-- organization.Role -->
<g id="node9" class="node">
<title>organization.Role</title>
<path fill="#e2f4f3" stroke="#52606d" d="M434.16,-547C434.16,-547 404.16,-547 404.16,-547 398.16,-547 392.16,-541 392.16,-535 392.16,-535 392.16,-523 392.16,-523 392.16,-517 398.16,-511 404.16,-511 404.16,-511 434.16,-511 434.16,-511 440.16,-511 446.16,-517 446.16,-523 446.16,-523 446.16,-535 446.16,-535 446.16,-541 440.16,-547 434.16,-547"/>
<text text-anchor="middle" x="419.16" y="-525.3" font-family="Arial" font-size="11.00">Role</text>
</g>
<!-- organization.Role&#45;&gt;organization.Tenant -->
<g id="edge14" class="edge">
<title>organization.Role&#45;&gt;organization.Tenant</title>
<g id="a_edge14"><a xlink:title="tenant (required, foreign key)">
<path fill="none" stroke="#667085" d="M446.49,-533.17C503.54,-542.22 638.72,-563.65 704.55,-574.08"/>
<polygon fill="#667085" stroke="#667085" points="703.71,-577.49 714.13,-575.6 704.8,-570.58 703.71,-577.49"/>
</a>
</g>
<text text-anchor="middle" x="602.41" y="-569.83" font-family="Arial" font-size="8.00" fill="#475467">tenant (required, foreign key)</text>
</g>
<!-- organization.RoleAssignment -->
<g id="node10" class="node">
<title>organization.RoleAssignment</title>
<path fill="#e2f4f3" stroke="#52606d" d="M110.41,-434C110.41,-434 35.5,-434 35.5,-434 29.5,-434 23.5,-428 23.5,-422 23.5,-422 23.5,-410 23.5,-410 23.5,-404 29.5,-398 35.5,-398 35.5,-398 110.41,-398 110.41,-398 116.41,-398 122.41,-404 122.41,-410 122.41,-410 122.41,-422 122.41,-422 122.41,-428 116.41,-434 110.41,-434"/>
<text text-anchor="middle" x="72.95" y="-412.3" font-family="Arial" font-size="11.00">RoleAssignment</text>
</g>
<!-- organization.RoleAssignment&#45;&gt;organization.Membership -->
<g id="edge15" class="edge">
<title>organization.RoleAssignment&#45;&gt;organization.Membership</title>
<g id="a_edge15"><a xlink:title="membership (required, foreign key)">
<path fill="none" stroke="#667085" d="M122.85,-407.23C147.78,-402.76 172.91,-398.25 172.91,-398.25 172.91,-398.25 296.24,-383.04 367.98,-374.19"/>
<polygon fill="#667085" stroke="#667085" points="368.03,-377.71 377.53,-373.01 367.17,-370.76 368.03,-377.71"/>
</a>
</g>
<text text-anchor="middle" x="235.91" y="-400.4" font-family="Arial" font-size="8.00" fill="#475467">membership (required, foreign key)</text>
</g>
<!-- organization.RoleAssignment&#45;&gt;organization.Role -->
<g id="edge16" class="edge">
<title>organization.RoleAssignment&#45;&gt;organization.Role</title>
<g id="a_edge16"><a xlink:title="role (required, foreign key)">
<path fill="none" stroke="#667085" d="M122.91,-432.07C192.45,-454.9 318.32,-496.22 380.84,-516.75"/>
<polygon fill="#667085" stroke="#667085" points="379.72,-520.06 390.31,-519.86 381.9,-513.41 379.72,-520.06"/>
</a>
</g>
<text text-anchor="middle" x="235.91" y="-491.37" font-family="Arial" font-size="8.00" fill="#475467">role (required, foreign key)</text>
</g>
<!-- organization.RoleAssignment&#45;&gt;organization.Tenant -->
<g id="edge19" class="edge">
<title>organization.RoleAssignment&#45;&gt;organization.Tenant</title>
<g id="a_edge19"><a xlink:title="assigned_tenants (optional, many&#45;to&#45;many)">
<path fill="none" stroke="#667085" stroke-dasharray="5,2" d="M102.23,-441.72C131.48,-468.32 172.91,-506 172.91,-506 172.91,-506 341.91,-562 341.91,-562 341.91,-562 539.41,-584 539.41,-584 539.41,-584 665.41,-584 665.41,-584 665.41,-584 684.81,-582.98 704.07,-581.98"/>
<polygon fill="#667085" stroke="#667085" points="104.85,-439.37 95.1,-435.23 100.14,-444.55 104.85,-439.37"/>
<polygon fill="#667085" stroke="#667085" points="704.24,-585.47 714.04,-581.46 703.87,-578.48 704.24,-585.47"/>
</a>
</g>
<text text-anchor="middle" x="419.16" y="-581.09" font-family="Arial" font-size="8.00" fill="#475467">assigned_tenants (optional, many&#45;to&#45;many)</text>
</g>
<!-- organization.TenantGroup -->
<g id="node14" class="node">
<title>organization.TenantGroup</title>
<path fill="#e2f4f3" stroke="#52606d" d="M1034.23,-527C1034.23,-527 975.82,-527 975.82,-527 969.82,-527 963.82,-521 963.82,-515 963.82,-515 963.82,-503 963.82,-503 963.82,-497 969.82,-491 975.82,-491 975.82,-491 1034.23,-491 1034.23,-491 1040.23,-491 1046.23,-497 1046.23,-503 1046.23,-503 1046.23,-515 1046.23,-515 1046.23,-521 1040.23,-527 1034.23,-527"/>
<text text-anchor="middle" x="1005.02" y="-505.3" font-family="Arial" font-size="11.00">TenantGroup</text>
</g>
<!-- organization.RoleAssignment&#45;&gt;organization.TenantGroup -->
<g id="edge17" class="edge">
<title>organization.RoleAssignment&#45;&gt;organization.TenantGroup</title>
<g id="a_edge17"><a xlink:title="scope_group (optional, foreign key)">
<path fill="none" stroke="#667085" d="M122.83,-417.85C234.03,-422.06 496.41,-432 496.41,-432 496.41,-432 539.41,-459 539.41,-459 539.41,-459 831.42,-490.43 952.44,-503.45"/>
<polygon fill="#667085" stroke="#667085" points="951.78,-506.9 962.1,-504.49 952.53,-499.94 951.78,-506.9"/>
</a>
</g>
<text text-anchor="middle" x="602.41" y="-474.46" font-family="Arial" font-size="8.00" fill="#475467">scope_group (optional, foreign key)</text>
</g>
<!-- organization.RoleAssignment&#45;&gt;users.User -->
<g id="edge18" class="edge">
<title>organization.RoleAssignment&#45;&gt;users.User</title>
<g id="a_edge18"><a xlink:title="granted_by (optional, foreign key)">
<path fill="none" stroke="#667085" d="M86.69,-397.6C113.42,-358.98 172.91,-273 172.91,-273 172.91,-273 665.41,-184 665.41,-184 665.41,-184 685,-179.65 704.34,-175.34"/>
<polygon fill="#667085" stroke="#667085" points="705.07,-178.77 714.08,-173.18 703.55,-171.93 705.07,-178.77"/>
</a>
</g>
<text text-anchor="middle" x="419.16" y="-243.82" font-family="Arial" font-size="8.00" fill="#475467">granted_by (optional, foreign key)</text>
</g>
<!-- organization.Site&#45;&gt;organization.Region -->
<g id="edge20" class="edge">
<title>organization.Site&#45;&gt;organization.Region</title>
<g id="a_edge20"><a xlink:title="region (optional, foreign key)">
<path fill="none" stroke="#667085" d="M446.49,-950.71C503.4,-945.76 638.05,-934.04 704.06,-928.29"/>
<polygon fill="#667085" stroke="#667085" points="704.01,-931.81 713.67,-927.45 703.4,-924.83 704.01,-931.81"/>
</a>
</g>
<text text-anchor="middle" x="602.41" y="-944.48" font-family="Arial" font-size="8.00" fill="#475467">region (optional, foreign key)</text>
</g>
<!-- organization.SiteGroup -->
<g id="node12" class="node">
<title>organization.SiteGroup</title>
<path fill="#e2f4f3" stroke="#52606d" d="M765.32,-850C765.32,-850 720.41,-850 720.41,-850 714.41,-850 708.41,-844 708.41,-838 708.41,-838 708.41,-826 708.41,-826 708.41,-820 714.41,-814 720.41,-814 720.41,-814 765.32,-814 765.32,-814 771.32,-814 777.32,-820 777.32,-826 777.32,-826 777.32,-838 777.32,-838 777.32,-844 771.32,-850 765.32,-850"/>
<text text-anchor="middle" x="742.86" y="-828.3" font-family="Arial" font-size="11.00">SiteGroup</text>
</g>
<!-- organization.Site&#45;&gt;organization.SiteGroup -->
<g id="edge21" class="edge">
<title>organization.Site&#45;&gt;organization.SiteGroup</title>
<g id="a_edge21"><a xlink:title="group (optional, foreign key)">
<path fill="none" stroke="#667085" d="M446.63,-945.07C481.76,-934.53 539.41,-917.25 539.41,-917.25 539.41,-917.25 665.41,-884 665.41,-884 665.41,-884 685.58,-870.28 705.2,-856.94"/>
<polygon fill="#667085" stroke="#667085" points="707.14,-859.85 713.44,-851.33 703.21,-854.06 707.14,-859.85"/>
</a>
</g>
<text text-anchor="middle" x="602.41" y="-919.4" font-family="Arial" font-size="8.00" fill="#475467">group (optional, foreign key)</text>
</g>
<!-- organization.Site&#45;&gt;organization.Tenant -->
<g id="edge22" class="edge">
<title>organization.Site&#45;&gt;organization.Tenant</title>
<g id="a_edge22"><a xlink:title="tenant (optional, foreign key)">
<path fill="none" stroke="#667085" d="M446.4,-941.64C468.46,-932.1 496.41,-920 496.41,-920 496.41,-920 539.41,-873.25 539.41,-873.25 539.41,-873.25 665.41,-840 665.41,-840 665.41,-840 713.38,-676.88 733.32,-609.05"/>
<polygon fill="#667085" stroke="#667085" points="736.6,-610.32 736.06,-599.73 729.88,-608.34 736.6,-610.32"/>
</a>
</g>
<text text-anchor="middle" x="602.41" y="-875.4" font-family="Arial" font-size="8.00" fill="#475467">tenant (optional, foreign key)</text>
</g>
<!-- organization.SiteGroup&#45;&gt;organization.SiteGroup -->
<g id="edge23" class="edge">
<title>organization.SiteGroup&#45;&gt;organization.SiteGroup</title>
<g id="a_edge23"><a xlink:title="parent (optional, foreign key)">
<path fill="none" stroke="#667085" d="M722.01,-850.33C714.21,-864.52 721.17,-879 742.86,-879 758.97,-879 766.95,-871.03 766.81,-861.11"/>
<polygon fill="#667085" stroke="#667085" points="770.25,-860.44 764.13,-851.79 763.53,-862.36 770.25,-860.44"/>
</a>
</g>
<text text-anchor="middle" x="742.86" y="-881.15" font-family="Arial" font-size="8.00" fill="#475467">parent (optional, foreign key)</text>
</g>
<!-- organization.Tenant&#45;&gt;organization.Tenant -->
<g id="edge25" class="edge">
<title>organization.Tenant&#45;&gt;organization.Tenant</title>
<g id="a_edge25"><a xlink:title="managed_by (optional, foreign key)">
<path fill="none" stroke="#667085" d="M722.01,-598.33C714.21,-612.52 721.17,-627 742.86,-627 758.97,-627 766.95,-619.03 766.81,-609.11"/>
<polygon fill="#667085" stroke="#667085" points="770.25,-608.44 764.13,-599.79 763.53,-610.36 770.25,-608.44"/>
</a>
</g>
<text text-anchor="middle" x="742.86" y="-629.15" font-family="Arial" font-size="8.00" fill="#475467">managed_by (optional, foreign key)</text>
</g>
<!-- organization.Tenant&#45;&gt;organization.TenantGroup -->
<g id="edge24" class="edge">
<title>organization.Tenant&#45;&gt;organization.TenantGroup</title>
<g id="a_edge24"><a xlink:title="group (optional, foreign key)">
<path fill="none" stroke="#667085" d="M770.24,-572.8C812.9,-561.16 897.79,-537.99 952.69,-523.01"/>
<polygon fill="#667085" stroke="#667085" points="953.4,-526.44 962.12,-520.44 951.55,-519.69 953.4,-526.44"/>
</a>
</g>
<text text-anchor="middle" x="870.57" y="-561.17" font-family="Arial" font-size="8.00" fill="#475467">group (optional, foreign key)</text>
</g>
<!-- organization.TenantGroup&#45;&gt;organization.TenantGroup -->
<g id="edge26" class="edge">
<title>organization.TenantGroup&#45;&gt;organization.TenantGroup</title>
<g id="a_edge26"><a xlink:title="parent (optional, foreign key)">
<path fill="none" stroke="#667085" d="M983.07,-527.33C974.86,-541.52 982.18,-556 1005.02,-556 1021.98,-556 1030.38,-548.03 1030.23,-538.11"/>
<polygon fill="#667085" stroke="#667085" points="1033.66,-537.34 1027.42,-528.78 1026.96,-539.37 1033.66,-537.34"/>
</a>
</g>
<text text-anchor="middle" x="1005.02" y="-558.15" font-family="Arial" font-size="8.00" fill="#475467">parent (optional, foreign key)</text>
</g>
<!-- users.Token -->
<g id="node15" class="node">
<title>users.Token</title>
<path fill="#ededed" stroke="#52606d" d="M434.16,-185C434.16,-185 404.16,-185 404.16,-185 398.16,-185 392.16,-179 392.16,-173 392.16,-173 392.16,-161 392.16,-161 392.16,-155 398.16,-149 404.16,-149 404.16,-149 434.16,-149 434.16,-149 440.16,-149 446.16,-155 446.16,-161 446.16,-161 446.16,-173 446.16,-173 446.16,-179 440.16,-185 434.16,-185"/>
<text text-anchor="middle" x="419.16" y="-163.3" font-family="Arial" font-size="11.00">Token</text>
</g>
<!-- users.Token&#45;&gt;organization.Tenant -->
<g id="edge28" class="edge">
<title>users.Token&#45;&gt;organization.Tenant</title>
<g id="a_edge28"><a xlink:title="tenant (required, foreign key)">
<path fill="none" stroke="#667085" d="M446.41,-179.23C509.67,-208.7 665.41,-281.25 665.41,-281.25 665.41,-281.25 715.14,-475.55 734.38,-550.76"/>
<polygon fill="#667085" stroke="#667085" points="730.95,-551.48 736.82,-560.3 737.73,-549.74 730.95,-551.48"/>
</a>
</g>
<text text-anchor="middle" x="602.41" y="-283.4" font-family="Arial" font-size="8.00" fill="#475467">tenant (required, foreign key)</text>
</g>
<!-- users.Token&#45;&gt;users.User -->
<g id="edge27" class="edge">
<title>users.Token&#45;&gt;users.User</title>
<g id="a_edge27"><a xlink:title="user (required, foreign key)">
<path fill="none" stroke="#667085" d="M446.49,-167C503.42,-167 638.16,-167 704.14,-167"/>
<polygon fill="#667085" stroke="#667085" points="704.11,-170.5 714.11,-167 704.11,-163.5 704.11,-170.5"/>
</a>
</g>
<text text-anchor="middle" x="602.41" y="-169.15" font-family="Arial" font-size="8.00" fill="#475467">user (required, foreign key)</text>
</g>
<!-- users.UserGroup -->
<g id="node17" class="node">
<title>users.UserGroup</title>
<path fill="#ededed" stroke="#52606d" d="M97.66,-185C97.66,-185 48.25,-185 48.25,-185 42.25,-185 36.25,-179 36.25,-173 36.25,-173 36.25,-161 36.25,-161 36.25,-155 42.25,-149 48.25,-149 48.25,-149 97.66,-149 97.66,-149 103.66,-149 109.66,-155 109.66,-161 109.66,-161 109.66,-173 109.66,-173 109.66,-179 103.66,-185 97.66,-185"/>
<text text-anchor="middle" x="72.95" y="-163.3" font-family="Arial" font-size="11.00">UserGroup</text>
</g>
<!-- users.UserGroup&#45;&gt;organization.Role -->
<g id="edge30" class="edge">
<title>users.UserGroup&#45;&gt;organization.Role</title>
<g id="a_edge30"><a xlink:title="roles (optional, many&#45;to&#45;many)">
<path fill="none" stroke="#667085" stroke-dasharray="5,2" d="M103.13,-192.84C164,-246.76 298.91,-366.25 298.91,-366.25 298.91,-366.25 341.91,-497 341.91,-497 341.91,-497 361.99,-505.43 381.55,-513.63"/>
<polygon fill="#667085" stroke="#667085" points="105.65,-190.4 95.85,-186.39 101.01,-195.64 105.65,-190.4"/>
<polygon fill="#667085" stroke="#667085" points="379.95,-516.76 390.52,-517.4 382.66,-510.3 379.95,-516.76"/>
</a>
</g>
<text text-anchor="middle" x="235.91" y="-368.4" font-family="Arial" font-size="8.00" fill="#475467">roles (optional, many&#45;to&#45;many)</text>
</g>
<!-- users.UserGroup&#45;&gt;organization.Tenant -->
<g id="edge29" class="edge">
<title>users.UserGroup&#45;&gt;organization.Tenant</title>
<g id="a_edge29"><a xlink:title="tenant (optional, foreign key)">
<path fill="none" stroke="#667085" d="M110.09,-179.27C183.23,-204.11 341.91,-258 341.91,-258 341.91,-258 665.41,-330 665.41,-330 665.41,-330 712.73,-484.74 732.92,-550.74"/>
<polygon fill="#667085" stroke="#667085" points="729.53,-551.63 735.8,-560.17 736.22,-549.58 729.53,-551.63"/>
</a>
</g>
<text text-anchor="middle" x="419.16" y="-293.75" font-family="Arial" font-size="8.00" fill="#475467">tenant (optional, foreign key)</text>
</g>
<!-- users.UserGroup&#45;&gt;users.User -->
<g id="edge31" class="edge">
<title>users.UserGroup&#45;&gt;users.User</title>
<g id="a_edge31"><a xlink:title="members (optional, many&#45;to&#45;many)">
<path fill="none" stroke="#667085" stroke-dasharray="5,2" d="M120.45,-148.48C197.17,-117.91 341.91,-60.25 341.91,-60.25 341.91,-60.25 496.41,-60.25 496.41,-60.25 496.41,-60.25 665.41,-119 665.41,-119 665.41,-119 686.11,-132 705.97,-144.46"/>
<polygon fill="#667085" stroke="#667085" points="119.49,-145.09 111.5,-152.04 122.08,-151.59 119.49,-145.09"/>
<polygon fill="#667085" stroke="#667085" points="703.94,-147.32 714.27,-149.68 707.66,-141.39 703.94,-147.32"/>
</a>
</g>
<text text-anchor="middle" x="419.16" y="-62.4" font-family="Arial" font-size="8.00" fill="#475467">members (optional, many&#45;to&#45;many)</text>
</g>
<!-- users.UserPreference -->
<g id="node18" class="node">
<title>users.UserPreference</title>
<path fill="#ededed" stroke="#52606d" d="M455.49,-120C455.49,-120 382.83,-120 382.83,-120 376.83,-120 370.83,-114 370.83,-108 370.83,-108 370.83,-96 370.83,-96 370.83,-90 376.83,-84 382.83,-84 382.83,-84 455.49,-84 455.49,-84 461.49,-84 467.49,-90 467.49,-96 467.49,-96 467.49,-108 467.49,-108 467.49,-114 461.49,-120 455.49,-120"/>
<text text-anchor="middle" x="419.16" y="-98.3" font-family="Arial" font-size="11.00">UserPreference</text>
</g>
<!-- users.UserPreference&#45;&gt;users.User -->
<g id="edge32" class="edge">
<title>users.UserPreference&#45;&gt;users.User</title>
<g id="a_edge32"><a xlink:title="user (required, one&#45;to&#45;one)">
<path fill="none" stroke="#667085" stroke-width="1.4" d="M479.45,-113.67C552.03,-127.94 665.41,-150.25 665.41,-150.25 665.41,-150.25 684.63,-154.46 703.8,-158.66"/>
<polygon fill="#667085" stroke="#667085" stroke-width="1.4" points="480.3,-110.27 469.82,-111.77 478.95,-117.13 480.3,-110.27"/>
<polygon fill="#667085" stroke="#667085" stroke-width="1.4" points="702.97,-162.06 713.48,-160.78 704.46,-155.22 702.97,-162.06"/>
</a>
</g>
<text text-anchor="middle" x="602.41" y="-152.4" font-family="Arial" font-size="8.00" fill="#475467">user (required, one&#45;to&#45;one)</text>
</g>
</g>
</svg>
