<svg xmlns="http://www.w3.org/2000/svg" width="64" height="64" viewBox="0 0 64 64" role="img" aria-label="ITAMbox">
  <!-- Violet theme mark. Scan brackets = neutral (currentColor, adapts
       to light/dark); the asset cube carries the brand violet in a
       three-shade ramp for iso-3D depth. -->
  <path d="M22 6 H14 a8 8 0 0 0 -8 8 V22" fill="none" stroke="currentColor" stroke-width="4.5" stroke-linecap="round"/>
  <path d="M42 6 H50 a8 8 0 0 1 8 8 V22" fill="none" stroke="currentColor" stroke-width="4.5" stroke-linecap="round"/>
  <path d="M6 42 V50 a8 8 0 0 0 8 8 H22" fill="none" stroke="currentColor" stroke-width="4.5" stroke-linecap="round"/>
  <path d="M58 42 V50 a8 8 0 0 1 -8 8 H42" fill="none" stroke="currentColor" stroke-width="4.5" stroke-linecap="round"/>
  <path d="M32 16 L45.2 23.5 L32 31 L18.8 23.5 Z" fill="#818cf8"/>
  <path d="M17.9 25 L31.1 32.5 L31.1 47 L17.9 39.5 Z" fill="#6366f1"/>
  <path d="M46.1 25 L32.9 32.5 L32.9 47 L46.1 39.5 Z" fill="#4f46e5"/>
</svg>
