<svg xmlns="http://www.w3.org/2000/svg" width="264" height="56" viewBox="0 0 264 56" role="img" aria-label="ITAMbox">
  <!-- Horizontal lockup. ITAM emphasized (700, full ink); "box"
       recedes (500, 45% opacity). All currentColor — one file for
       light and dark. NOTE: wordmark is a text element (Inter with
       system fallback); convert to outlines before print use. -->
  <g transform="translate(2,3) scale(0.78)">
    <path d="M22 6 H14 a8 8 0 0 0 -8 8 V22" fill="none" stroke="currentColor" stroke-width="4.5" stroke-linecap="round"/>
    <path d="M42 6 H50 a8 8 0 0 1 8 8 V22" fill="none" stroke="currentColor" stroke-width="4.5" stroke-linecap="round"/>
    <path d="M6 42 V50 a8 8 0 0 0 8 8 H22" fill="none" stroke="currentColor" stroke-width="4.5" stroke-linecap="round"/>
    <path d="M58 42 V50 a8 8 0 0 1 -8 8 H42" fill="none" stroke="currentColor" stroke-width="4.5" stroke-linecap="round"/>
    <path d="M32 16 L45.2 23.5 L32 31 L18.8 23.5 Z" fill="currentColor"/>
    <path d="M17.9 25 L31.1 32.5 L31.1 47 L17.9 39.5 Z" fill="currentColor"/>
    <path d="M46.1 25 L32.9 32.5 L32.9 47 L46.1 39.5 Z" fill="currentColor"/>
  </g>
  <text x="62" y="37" font-family="Inter, system-ui, -apple-system, sans-serif" font-weight="700" font-size="28" letter-spacing="-0.5" fill="currentColor">ITAM<tspan font-weight="500" opacity="0.45">box</tspan></text>
</svg>
